<svg width="164" height="51" viewBox="0 0 164 51" fill="none" xmlns="http://www.w3.org/2000/svg">
<path d="M65.0843 37.238C63.4976 37.238 62.0696 36.966 60.8003 36.422C59.531 35.8553 58.5336 35.062 57.8083 34.042C57.083 33.022 56.7203 31.832 56.7203 30.472H60.8683C60.959 31.492 61.3556 32.3307 62.0583 32.988C62.7836 33.6453 63.7923 33.974 65.0843 33.974C66.4216 33.974 67.4643 33.6567 68.2123 33.022C68.9603 32.3647 69.3343 31.526 69.3343 30.506C69.3343 29.7127 69.0963 29.0667 68.6203 28.568C68.167 28.0693 67.589 27.684 66.8863 27.412C66.2063 27.14 65.2543 26.8453 64.0303 26.528C62.489 26.12 61.231 25.712 60.2563 25.304C59.3043 24.8733 58.4883 24.216 57.8083 23.332C57.1283 22.448 56.7883 21.2693 56.7883 19.796C56.7883 18.436 57.1283 17.246 57.8083 16.226C58.4883 15.206 59.4403 14.424 60.6643 13.88C61.8883 13.336 63.305 13.064 64.9143 13.064C67.2036 13.064 69.0736 13.642 70.5243 14.798C71.9976 15.9313 72.8136 17.4953 72.9723 19.49H68.6883C68.6203 18.6287 68.2123 17.892 67.4643 17.28C66.7163 16.668 65.7303 16.362 64.5063 16.362C63.3956 16.362 62.489 16.6453 61.7863 17.212C61.0836 17.7787 60.7323 18.5947 60.7323 19.66C60.7323 20.3853 60.9476 20.986 61.3783 21.462C61.8316 21.9153 62.3983 22.278 63.0783 22.55C63.7583 22.822 64.6876 23.1167 65.8663 23.434C67.4303 23.8647 68.6996 24.2953 69.6743 24.726C70.6716 25.1567 71.5103 25.8253 72.1903 26.732C72.893 27.616 73.2443 28.806 73.2443 30.302C73.2443 31.5033 72.9156 32.6367 72.2583 33.702C71.6236 34.7673 70.683 35.6287 69.4363 36.286C68.2123 36.9207 66.7616 37.238 65.0843 37.238ZM94.9878 27.174C94.9878 27.8767 94.9425 28.5113 94.8518 29.078H80.5378C80.6512 30.574 81.2065 31.7753 82.2038 32.682C83.2012 33.5887 84.4252 34.042 85.8758 34.042C87.9612 34.042 89.4345 33.1693 90.2958 31.424H94.4778C93.9112 33.1467 92.8798 34.5633 91.3838 35.674C89.9105 36.762 88.0745 37.306 85.8758 37.306C84.0852 37.306 82.4758 36.9093 81.0478 36.116C79.6425 35.3 78.5318 34.1667 77.7158 32.716C76.9225 31.2427 76.5258 29.5427 76.5258 27.616C76.5258 25.6893 76.9112 24.0007 77.6818 22.55C78.4752 21.0767 79.5745 19.9433 80.9798 19.15C82.4078 18.3567 84.0398 17.96 85.8758 17.96C87.6438 17.96 89.2192 18.3453 90.6018 19.116C91.9845 19.8867 93.0612 20.9747 93.8318 22.38C94.6025 23.7627 94.9878 25.3607 94.9878 27.174ZM90.9418 25.95C90.9192 24.522 90.4092 23.3773 89.4118 22.516C88.4145 21.6547 87.1792 21.224 85.7058 21.224C84.3685 21.224 83.2238 21.6547 82.2718 22.516C81.3198 23.3547 80.7532 24.4993 80.5718 25.95H90.9418ZM102.678 11.84V37H98.8022V11.84H102.678ZM130.445 17.96C131.918 17.96 133.233 18.266 134.389 18.878C135.568 19.49 136.486 20.3967 137.143 21.598C137.823 22.7993 138.163 24.25 138.163 25.95V37H134.321V26.528C134.321 24.8507 133.902 23.57 133.063 22.686C132.224 21.7793 131.08 21.326 129.629 21.326C128.178 21.326 127.022 21.7793 126.161 22.686C125.322 23.57 124.903 24.8507 124.903 26.528V37H121.061V26.528C121.061 24.8507 120.642 23.57 119.803 22.686C118.964 21.7793 117.82 21.326 116.369 21.326C114.918 21.326 113.762 21.7793 112.901 22.686C112.062 23.57 111.643 24.8507 111.643 26.528V37H107.767V18.266H111.643V20.408C112.278 19.6373 113.082 19.0367 114.057 18.606C115.032 18.1753 116.074 17.96 117.185 17.96C118.681 17.96 120.018 18.2773 121.197 18.912C122.376 19.5467 123.282 20.4647 123.917 21.666C124.484 20.5327 125.368 19.6373 126.569 18.98C127.77 18.3 129.062 17.96 130.445 17.96ZM141.803 27.548C141.803 25.6667 142.188 24.0007 142.959 22.55C143.752 21.0993 144.818 19.9773 146.155 19.184C147.515 18.368 149.011 17.96 150.643 17.96C152.117 17.96 153.397 18.2547 154.485 18.844C155.596 19.4107 156.48 20.1247 157.137 20.986V18.266H161.047V37H157.137V34.212C156.48 35.096 155.584 35.8327 154.451 36.422C153.318 37.0113 152.026 37.306 150.575 37.306C148.966 37.306 147.492 36.898 146.155 36.082C144.818 35.2433 143.752 34.0873 142.959 32.614C142.188 31.118 141.803 29.4293 141.803 27.548ZM157.137 27.616C157.137 26.324 156.865 25.202 156.321 24.25C155.8 23.298 155.108 22.5727 154.247 22.074C153.386 21.5753 152.456 21.326 151.459 21.326C150.462 21.326 149.532 21.5753 148.671 22.074C147.81 22.55 147.107 23.264 146.563 24.216C146.042 25.1453 145.781 26.256 145.781 27.548C145.781 28.84 146.042 29.9733 146.563 30.948C147.107 31.9227 147.81 32.6707 148.671 33.192C149.555 33.6907 150.485 33.94 151.459 33.94C152.456 33.94 153.386 33.6907 154.247 33.192C155.108 32.6933 155.8 31.968 156.321 31.016C156.865 30.0413 157.137 28.908 157.137 27.616Z" fill="black"/>
<path fill-rule="evenodd" clip-rule="evenodd" d="M10.625 4.13184C16.493 4.13184 21.25 8.88881 21.25 14.7568V4.13184H31.875C37.743 4.13184 42.5 8.88881 42.5 14.7568C42.5 20.6248 37.743 25.3818 31.875 25.3818C37.743 25.3818 42.5 30.1389 42.5 36.0068C42.5 38.9205 41.3271 41.5603 39.4278 43.4798L39.388 43.5199L39.3528 43.5549C37.4328 45.457 34.7911 46.6318 31.875 46.6318C28.9787 46.6318 26.3531 45.473 24.4364 43.5936C24.4116 43.5692 24.3867 43.5445 24.362 43.5199C24.3387 43.4966 24.3155 43.4732 24.2925 43.4498C22.4107 41.5328 21.25 38.9053 21.25 36.0068C21.25 41.8748 16.493 46.6318 10.625 46.6318C4.75697 46.6318 0 41.8748 0 36.0068V25.3818H10.625C4.75697 25.3818 0 20.6248 0 14.7568C0 8.88881 4.75697 4.13184 10.625 4.13184ZM19.125 14.7568C19.125 19.4513 15.3194 23.2568 10.625 23.2568V6.25684C15.3194 6.25684 19.125 10.0624 19.125 14.7568ZM40.375 36.0068C40.375 31.3124 36.5694 27.5068 31.875 27.5068C27.1806 27.5068 23.375 31.3124 23.375 36.0068H40.375ZM2.125 27.5068V36.0068C2.125 40.7013 5.93058 44.5068 10.625 44.5068C15.3194 44.5068 19.125 40.7013 19.125 36.0068V27.5068H2.125ZM23.375 23.2568V6.25684H31.875C36.5694 6.25684 40.375 10.0624 40.375 14.7568C40.375 19.4513 36.5694 23.2568 31.875 23.2568H23.375Z" fill="#5417D7"/>
</svg>
