<svg width="231" height="158" viewBox="0 0 231 158" fill="none" xmlns="http://www.w3.org/2000/svg">
<path fill-rule="evenodd" clip-rule="evenodd" d="M190.866 85.4977V85.4977L190.885 85.7273L190.944 85.9581L191.041 86.1914L191.178 86.4283L191.355 86.6702L191.571 86.9183L191.829 87.1739L192.128 87.4383L192.468 87.713L192.852 87.9993L193.28 88.2988L193.752 88.6129L194.269 88.9432L194.833 89.2914L195.445 89.6591L196.105 90.0479L196.814 90.4598L197.572 90.8965L198.382 91.3597L199.242 91.8514L200.154 92.3733L201.116 92.9272L202.13 93.5149L203.193 94.1381L204.306 94.7982L205.466 95.4968L206.671 96.2349L207.918 97.0136L209.204 97.8334L210.524 98.6947L211.874 99.5974L213.247 100.541L214.637 101.524L216.036 102.545L217.435 103.601L218.825 104.69L220.196 105.808L221.537 106.95L222.836 108.112L224.082 109.286L225.261 110.466L226.362 111.645L227.372 112.816L228.28 113.968L229.073 115.095L229.742 116.187L230.276 117.235L230.668 118.229L230.911 119.163L231 120.026L230.932 120.814L230.706 121.517L230.323 122.132L229.786 122.654L229.099 123.079L228.269 123.406L227.306 123.634L226.217 123.764L225.015 123.796L223.711 123.735L222.318 123.585L220.849 123.35L219.317 123.036L217.736 122.649L216.119 122.197L214.477 121.686L212.823 121.124L211.167 120.519L209.52 119.877L207.891 119.206L206.287 118.513L204.716 117.805L203.184 117.087L201.696 116.365L200.255 115.644L198.866 114.93L197.531 114.226L196.251 113.536L195.027 112.863L193.86 112.211L192.75 111.581L191.696 110.975L190.697 110.396L189.753 109.844L188.861 109.322L188.021 108.828L187.23 108.365L186.487 107.933L185.789 107.532L185.136 107.162L184.524 106.823L183.953 106.516L183.419 106.24L182.922 105.996L182.459 105.783L182.029 105.602L181.63 105.452L181.261 105.333L180.919 105.246L180.604 105.191L180.313 105.167L180.047 105.176L179.803 105.217L179.581 105.291L179.378 105.398L179.195 105.539L179.03 105.715L178.882 105.927L178.75 106.174L178.634 106.459L178.532 106.782L178.444 107.145L178.369 107.548L178.305 107.994L178.253 108.483L178.211 109.016L178.178 109.597L178.154 110.225L178.138 110.904L178.128 111.633L178.124 112.416L178.124 113.253L178.127 114.147L178.132 115.098L178.138 116.108L178.143 117.178L178.145 118.308L178.143 119.5L178.135 120.753L178.119 122.066L178.093 123.44L178.055 124.872L178.002 126.36L177.932 127.902L177.843 129.493L177.732 131.13L177.598 132.805L177.436 134.512L177.246 136.244L177.024 137.991L176.77 139.744L176.481 141.491L176.155 143.221L175.792 144.921L175.39 146.576L174.95 148.173L174.472 149.698L173.957 151.135L173.405 152.47L172.82 153.688L172.203 154.777L171.559 155.724L170.889 156.518L170.2 157.15L169.495 157.61L168.779 157.895L168.057 158L167.335 157.924L166.618 157.668L165.911 157.235L165.219 156.63L164.546 155.861L163.897 154.938L163.276 153.871L162.686 152.672L162.129 151.354L161.607 149.933L161.123 148.421L160.677 146.835L160.27 145.188L159.9 143.494L159.569 141.768L159.273 140.023L159.014 138.27L158.787 136.521L158.592 134.786L158.426 133.074L158.287 131.394L158.173 129.751L158.081 128.152L158.008 126.603L157.953 125.105L157.912 123.664L157.884 122.281L157.867 120.958L157.857 119.695L157.855 118.494L157.856 117.354L157.861 116.274L157.867 115.255L157.872 114.294L157.876 113.392L157.876 112.546L157.873 111.754L157.864 111.016L157.848 110.33L157.826 109.694L157.795 109.106L157.754 108.565L157.704 108.069L157.642 107.616L157.569 107.206L157.482 106.837L157.383 106.508L157.269 106.217L157.14 105.964L156.994 105.747L156.832 105.565L156.652 105.418L156.453 105.306L156.233 105.226L155.993 105.18L155.73 105.166L155.444 105.185L155.133 105.235L154.795 105.317L154.43 105.431L154.036 105.576L153.611 105.752L153.154 105.96L152.662 106.199L152.135 106.47L151.569 106.772L150.964 107.106L150.318 107.471L149.627 107.867L148.892 108.294L148.108 108.753L147.276 109.241L146.393 109.759L145.457 110.306L144.467 110.881L143.422 111.483L142.32 112.109L141.162 112.758L139.948 113.428L138.676 114.115L137.35 114.817L135.969 115.53L134.537 116.25L133.056 116.972L131.531 117.691L129.965 118.401L128.367 119.097L126.741 119.772L125.096 120.419L123.441 121.03L121.786 121.6L120.141 122.119L118.519 122.581L116.931 122.979L115.391 123.305L113.911 123.553L112.505 123.717L111.186 123.793L109.967 123.775L108.859 123.661L107.875 123.449L107.024 123.138L106.314 122.728L105.752 122.222L105.344 121.621L105.093 120.931L105 120.157L105.064 119.305L105.283 118.382L105.651 117.397L106.164 116.357L106.811 115.272L107.585 114.15L108.476 113.001L109.47 111.832L110.558 110.654L111.726 109.473L112.961 108.298L114.253 107.134L115.588 105.989L116.955 104.867L118.343 103.773L119.741 102.711L121.141 101.684L122.532 100.695L123.909 99.7449L125.262 98.8357L126.588 97.9678L127.879 97.1414L129.133 96.3562L130.345 95.6117L131.512 94.9069L132.632 94.2407L133.704 93.6118L134.725 93.0185L135.696 92.4593L136.616 91.9324L137.484 91.4361L138.302 90.9684L139.069 90.5277L139.786 90.112L140.453 89.7195L141.072 89.3486L141.644 88.9974L142.169 88.6644L142.648 88.3478L143.082 88.0461L143.473 87.7578L143.821 87.4813L144.126 87.2154L144.39 86.9585L144.613 86.7093L144.796 86.4665L144.939 86.2289L145.043 85.9951L145.108 85.764L145.133 85.5342L145.12 85.3047L145.068 85.0742L144.977 84.8414L144.846 84.6051L144.676 84.3641L144.466 84.1171L144.215 83.8628L143.923 83.5998L143.588 83.3269L143.212 83.0425L142.791 82.7452L142.326 82.4336L141.816 82.1059L141.259 81.7607L140.656 81.3963L140.003 81.0109L139.302 80.6028L138.552 80.1702L137.75 79.7113L136.898 79.2243L135.995 78.7074L135.04 78.1586L134.035 77.5764L132.979 76.959L131.874 76.3048L130.722 75.6125L129.524 74.8807L128.283 74.1086L127.003 73.2954L125.688 72.4407L124.343 71.5446L122.973 70.6076L121.585 69.6307L120.187 68.6156L118.787 67.5645L117.395 66.4804L116.02 65.3669L114.674 64.2283L113.367 63.0698L112.112 61.8974L110.922 60.7175L109.807 59.5376L108.782 58.3653L107.857 57.209L107.045 56.0775L106.356 54.9796L105.799 53.9244L105.384 52.9206L105.117 51.977L105.003 51.1015L105.046 50.3018L105.247 49.5843L105.605 48.9549L106.118 48.4181L106.782 47.9772L107.589 47.6346L108.532 47.3909L109.601 47.246L110.786 47.198L112.075 47.2442L113.454 47.3808L114.912 47.6029L116.435 47.9048L118.009 48.2804L119.621 48.7227L121.26 49.2246L122.913 49.7788L124.569 50.3778L126.218 51.0142L127.851 51.6808L129.46 52.3706L131.036 53.0771L132.575 53.794L134.07 54.5156L135.518 55.2366L136.916 55.9522L138.26 56.6582L139.549 57.3506L140.782 58.0263L141.958 58.6822L143.077 59.316L144.14 59.9254L145.147 60.5089L146.1 61.065L147 61.5925L147.849 62.0905L148.647 62.5584L149.398 62.9957L150.102 63.4019L150.763 63.777L151.381 64.1206L151.959 64.4328L152.498 64.7135L153.001 64.9628L153.469 65.1807L153.904 65.3671L154.308 65.5221L154.682 65.6457L155.028 65.7377L155.348 65.7981L155.642 65.8267L155.912 65.8232L156.159 65.7873L156.385 65.7186L156.591 65.6166L156.777 65.4808L156.945 65.3105L157.095 65.1048L157.229 64.8631L157.348 64.5842L157.452 64.2672L157.543 63.911L157.62 63.5142L157.685 63.0756L157.739 62.5937L157.783 62.0671L157.817 61.4942L157.842 60.8735L157.86 60.2032L157.871 59.4818L157.876 58.7077L157.876 57.8791L157.873 56.9947L157.868 56.0528L157.863 55.0524L157.858 53.9922L157.855 52.8715L157.856 51.6896L157.863 50.4465L157.878 49.1425L157.902 47.7782L157.938 46.3553L157.989 44.8756L158.055 43.3421L158.141 41.7585L158.248 40.1292L158.379 38.46L158.536 36.7573L158.722 35.0288L158.938 33.2833L159.187 31.5306L159.471 29.7816L159.791 28.048L160.148 26.3428L160.543 24.6794L160.977 23.072L161.449 21.535L161.959 20.0831L162.504 18.731L163.084 17.4929L163.696 16.3823L164.337 15.4118L165.002 14.5928L165.689 13.9351L166.392 13.4467L167.106 13.1337L167.827 13L168.55 13.0473L169.268 13.275L169.977 13.6802L170.672 14.2579L171.348 15.001L172.001 15.9004L172.627 16.9456L173.222 18.1244L173.785 19.4238L174.312 20.8298L174.802 22.3279L175.254 23.9035L175.668 25.542L176.043 27.229L176.381 28.9506L176.682 30.6938L176.947 32.4461L177.179 34.1964L177.379 35.9341L177.549 37.6502L177.692 39.3363L177.81 40.9854L177.906 42.5915L177.981 44.1494L178.039 45.6552L178.082 47.1056L178.112 48.4981L178.131 49.831L178.141 51.1033L178.145 52.3144L178.144 53.4643L178.14 54.5533L178.134 55.5822L178.128 56.5519L178.124 57.4636L178.123 58.3187L178.126 59.1186L178.134 59.865L178.148 60.5595L178.17 61.2037L178.2 61.7992L178.239 62.3478L178.287 62.8508L178.347 63.3099L178.419 63.7265L178.503 64.102L178.6 64.4376L178.712 64.7345L178.838 64.9939L178.981 65.2167L179.14 65.4038L179.318 65.556L179.514 65.6741L179.73 65.7586L179.967 65.8101L180.226 65.829L180.509 65.8157L180.816 65.7705L181.149 65.6936L181.509 65.5851L181.899 65.4451L182.319 65.2737L182.771 65.0708L183.257 64.8366L183.779 64.5709L184.338 64.2737L184.936 63.9451L185.576 63.585L186.26 63.1937L186.988 62.7712L187.763 62.3179L188.588 61.8342L189.463 61.3207L190.39 60.7781L191.372 60.2076L192.408 59.6103L193.5 58.9879L194.649 58.3423L195.855 57.6757L197.117 56.9909L198.435 56.291L199.807 55.5795L201.232 54.8605L202.705 54.1385L204.223 53.4187L205.783 52.7065L207.377 52.0079L208.999 51.3294L210.641 50.6777L212.295 50.0599L213.951 49.4834L215.598 48.9555L217.224 48.4838L218.819 48.0755L220.367 47.7375L221.858 47.4765L223.276 47.2985L224.61 47.2085L225.846 47.2111L226.972 47.3094L227.977 47.5058L228.85 47.8012L229.583 48.1953L230.168 48.6866L230.601 49.2723L230.877 49.9483L230.995 50.7095L230.956 51.5497L230.762 52.4617L230.417 53.4378L229.927 54.4695L229.3 55.5482L228.546 56.6647L227.673 57.8103L226.694 58.976L225.621 60.1533L224.465 61.3342L223.239 62.511L221.956 63.6769L220.627 64.8257L219.264 65.9518L217.879 67.0505L216.482 68.1178L215.082 69.1504L213.688 70.1457L212.309 71.1019L210.951 72.0177L209.621 72.8922L208.324 73.7252L207.064 74.5169L205.845 75.2679L204.67 75.9789L203.543 76.6511L202.463 77.2859L201.434 77.8847L200.455 78.4493L199.527 78.9812L198.65 79.4823L197.825 79.9544L197.05 80.3993L196.325 80.8188L195.65 81.2149L195.023 81.5891L194.444 81.9433L193.912 82.2791L193.425 82.5982L192.984 82.9022L192.586 83.1925L192.232 83.4708L191.919 83.7383L191.649 83.9966L191.419 84.2469L191.23 84.4906L191.081 84.729L190.971 84.9633L190.9 85.1948L190.868 85.4246L190.866 85.4977Z" fill="#9070D7"/>
<path fill-rule="evenodd" clip-rule="evenodd" d="M83.2787 72.0474V72.0474L83.3064 72.0688L83.3384 72.0858L83.3748 72.0985L83.416 72.107L83.4619 72.1113L83.5129 72.1117L83.5691 72.108L83.6308 72.1005L83.6981 72.0891L83.7714 72.0739L83.8508 72.055L83.9367 72.0324L84.0293 72.0061L84.1289 71.9763L84.2357 71.9429L84.3502 71.9062L84.4725 71.866L84.6029 71.8226L84.7418 71.7761L84.8893 71.7266L85.0457 71.6742L85.2112 71.6191L85.3859 71.5616L85.5699 71.502L85.7634 71.4404L85.9663 71.3773L86.1784 71.313L86.3995 71.248L86.6295 71.1827L86.8677 71.1176L87.1138 71.0534L87.3669 70.9907L87.6262 70.9301L87.8907 70.8724L88.1592 70.8183L88.4304 70.7686L88.7027 70.7241L88.9744 70.6856L89.2438 70.654L89.5088 70.6299L89.7674 70.6141L90.0174 70.6074L90.2567 70.6104L90.4829 70.6235L90.6939 70.6472L90.8875 70.6818L91.0618 70.7275L91.2148 70.7844L91.3449 70.8523L91.4507 70.931L91.531 71.02L91.585 71.1189L91.6122 71.2269L91.6124 71.3433L91.5857 71.4671L91.5326 71.5974L91.4541 71.7332L91.3511 71.8733L91.2251 72.0167L91.0778 72.1623L90.9108 72.3091L90.7262 72.4559L90.5261 72.602L90.3126 72.7463L90.0878 72.8881L89.8539 73.0267L89.613 73.1615L89.3671 73.292L89.118 73.4177L88.8676 73.5384L88.6176 73.6538L88.3693 73.7638L88.1242 73.8682L87.8833 73.9672L87.6478 74.0607L87.4185 74.1489L87.1961 74.2319L86.9813 74.3099L86.7744 74.3831L86.5759 74.4518L86.3861 74.5162L86.205 74.5766L86.0328 74.6332L85.8696 74.6864L85.7152 74.7364L85.5697 74.7834L85.4328 74.8278L85.3046 74.8698L85.1847 74.9097L85.073 74.9477L84.9694 74.984L84.8736 75.019L84.7853 75.0527L84.7045 75.0854L84.6309 75.1174L84.5644 75.1488L84.5046 75.1798L84.4516 75.2107L84.4051 75.2415L84.3649 75.2725L84.331 75.3039L84.3032 75.3358L84.2815 75.3685L84.2658 75.402L84.2559 75.4366L84.2519 75.4725L84.2536 75.5099L84.2612 75.5489L84.2746 75.5898L84.2938 75.6327L84.3188 75.6778L84.3497 75.7255L84.3864 75.7758L84.4292 75.8291L84.478 75.8856L84.5329 75.9455L84.594 76.0091L84.6614 76.0767L84.7352 76.1485L84.8153 76.2249L84.902 76.3061L84.9953 76.3924L85.0951 76.4841L85.2016 76.5815L85.3146 76.6849L85.4343 76.7946L85.5604 76.9108L85.6929 77.0339L85.8315 77.1639L85.976 77.3012L86.1262 77.4458L86.2815 77.5979L86.4416 77.7574L86.6057 77.9245L86.7733 78.0988L86.9435 78.2803L87.1155 78.4687L87.2882 78.6634L87.4605 78.8641L87.6312 79.07L87.7989 79.2803L87.9623 79.4941L88.1198 79.7103L88.2699 79.9278L88.4109 80.1452L88.5413 80.361L88.6595 80.5738L88.7639 80.782L88.8531 80.9838L88.9257 81.1776L88.9805 81.3616L89.0164 81.5343L89.0327 81.6941L89.0286 81.8395L89.0039 81.9691L88.9584 82.0819L88.8923 82.1767L88.8059 82.253L88.7001 82.3101L88.5756 82.3479L88.4337 82.3662L88.2755 82.3653L88.1028 82.3458L87.9169 82.3081L87.7198 82.2533L87.5131 82.1825L87.2986 82.0967L87.0781 81.9973L86.8533 81.8857L86.626 81.7634L86.3976 81.6319L86.1696 81.4927L85.9435 81.3472L85.7203 81.1968L85.5011 81.0429L85.2869 80.8869L85.0784 80.7297L84.8763 80.5727L84.6811 80.4167L84.4931 80.2627L84.3127 80.1114L84.14 79.9636L83.9752 79.8198L83.8182 79.6805L83.6689 79.5461L83.5274 79.417L83.3933 79.2936L83.2665 79.1758L83.1468 79.0641L83.034 78.9583L82.9276 78.8587L82.8275 78.7653L82.7333 78.678L82.6448 78.5969L82.5617 78.5218L82.4836 78.4529L82.4103 78.39L82.3415 78.333L82.2769 78.2819L82.2162 78.2367L82.1592 78.1973L82.1056 78.1636L82.0553 78.1356L82.0079 78.1132L81.9632 78.0965L81.921 78.0854L81.8812 78.08L81.8435 78.0802L81.8077 78.0861L81.7737 78.0977L81.7412 78.115L81.7101 78.1383L81.6803 78.1675L81.6515 78.2027L81.6235 78.2441L81.5963 78.2919L81.5695 78.3461L81.5432 78.407L81.517 78.4747L81.4908 78.5494L81.4645 78.6313L81.4377 78.7206L81.4104 78.8176L81.3823 78.9225L81.3532 79.0355L81.3229 79.1567L81.2912 79.2865L81.2578 79.4249L81.2224 79.5722L81.1849 79.7285L81.1449 79.8939L81.1021 80.0685L81.0564 80.2522L81.0074 80.4451L80.9548 80.6469L80.8984 80.8574L80.8379 81.0763L80.773 81.3032L80.7035 81.5375L80.6292 81.7785L80.55 82.0255L80.4655 82.2772L80.3759 82.5328L80.281 82.7907L80.1808 83.0497L80.0755 83.3079L79.9651 83.5638L79.8501 83.8153L79.7306 84.0604L79.6071 84.297L79.4802 84.5229L79.3504 84.7359L79.2185 84.9339L79.0852 85.1146L78.9514 85.276L78.818 85.4162L78.6859 85.5335L78.5561 85.6263L78.4297 85.6934L78.3075 85.7339L78.1905 85.7471L78.0797 85.7327L77.9758 85.6909L77.8796 85.6219L77.7916 85.5266L77.7124 85.4061L77.6424 85.2616L77.5819 85.0947L77.5309 84.9074L77.4895 84.7016L77.4574 84.4795L77.4346 84.2432L77.4207 83.9951L77.4151 83.7374L77.4175 83.4723L77.4272 83.2019L77.4436 82.9283L77.466 82.6534L77.4939 82.379L77.5264 82.1067L77.563 81.8378L77.6029 81.5738L77.6455 81.3155L77.6902 81.0641L77.7365 80.8203L77.7838 80.5846L77.8315 80.3577L77.8793 80.1398L77.9267 79.9312L77.9733 79.732L78.0188 79.5424L78.0629 79.3623L78.1053 79.1915L78.1458 79.0301L78.1841 78.8778L78.2202 78.7344L78.2538 78.5996L78.2848 78.4733L78.3131 78.355L78.3386 78.2447L78.3611 78.1419L78.3806 78.0465L78.397 77.958L78.4103 77.8763L78.4203 77.8011L78.427 77.7321L78.4303 77.6691L78.4302 77.6119L78.4265 77.5602L78.4192 77.5139L78.4081 77.4727L78.3933 77.4365L78.3745 77.4052L78.3517 77.3785L78.3247 77.3564L78.2934 77.3387L78.2577 77.3254L78.2173 77.3162L78.1721 77.3112L78.1219 77.3102L78.0666 77.3132L78.0058 77.3202L77.9394 77.331L77.8671 77.3456L77.7886 77.3639L77.7038 77.3859L77.6123 77.4116L77.5139 77.4409L77.4082 77.4736L77.2949 77.5099L77.1739 77.5495L77.0448 77.5924L76.9073 77.6384L76.7612 77.6875L76.6062 77.7394L76.4422 77.7941L76.269 77.8512L76.0864 77.9105L75.8944 77.9718L75.6931 78.0347L75.4824 78.0988L75.2627 78.1638L75.0341 78.2291L74.7971 78.2942L74.5523 78.3585L74.3003 78.4215L74.0419 78.4825L73.7781 78.5407L73.5102 78.5954L73.2393 78.6459L72.9671 78.6913L72.6952 78.7308L72.4253 78.7636L72.1594 78.7889L71.8997 78.8061L71.6481 78.8143L71.407 78.8129L71.1786 78.8014L70.965 78.7794L70.7684 78.7466L70.591 78.7026L70.4344 78.6475L70.3006 78.5814L70.1908 78.5044L70.1064 78.417L70.0482 78.3196L70.0167 78.213L70.0123 78.0979L70.0347 77.9752L70.0836 77.8459L70.1581 77.7109L70.2573 77.5714L70.3797 77.4284L70.5238 77.2831L70.6878 77.1365L70.8697 76.9895L71.0674 76.8433L71.279 76.6987L71.5021 76.5564L71.7347 76.4172L71.9746 76.2818L72.2199 76.1506L72.4686 76.0241L72.7189 75.9026L72.9691 75.7863L73.2177 75.6755L73.4635 75.5702L73.705 75.4703L73.9415 75.3759L74.1718 75.2869L74.3953 75.2031L74.6114 75.1243L74.8196 75.0503L75.0194 74.981L75.2107 74.9159L75.3932 74.8549L75.5668 74.7977L75.7314 74.744L75.8872 74.6935L76.0341 74.646L76.1723 74.6012L76.302 74.5588L76.4232 74.5186L76.5361 74.4803L76.641 74.4438L76.7381 74.4086L76.8275 74.3747L76.9095 74.3418L76.9842 74.3098L77.0519 74.2783L77.1127 74.2472L77.1668 74.2164L77.2144 74.1856L77.2555 74.1546L77.2904 74.1233L77.3191 74.0914L77.3418 74.0589L77.3585 74.0255L77.3693 73.9911L77.3743 73.9554L77.3734 73.9183L77.3668 73.8795L77.3543 73.839L77.3361 73.7964L77.312 73.7516L77.2821 73.7044L77.2462 73.6545L77.2044 73.6017L77.1566 73.5457L77.1026 73.4864L77.0425 73.4234L76.9761 73.3564L76.9034 73.2853L76.8243 73.2097L76.7386 73.1293L76.6464 73.0439L76.5476 72.953L76.4422 72.8565L76.3302 72.7541L76.2116 72.6454L76.0865 72.5302L75.955 72.4083L75.8174 72.2794L75.6738 72.1433L75.5245 71.9998L75.3699 71.849L75.2106 71.6906L75.0471 71.5247L74.88 71.3515L74.7101 71.1712L74.5384 70.9839L74.3657 70.7901L74.1933 70.5903L74.0222 70.3853L73.8539 70.1756L73.6898 69.9623L73.5312 69.7464L73.3799 69.529L73.2373 69.3115L73.1051 69.0953L72.9848 68.8819L72.8781 68.6729L72.7864 68.47L72.7111 68.2748L72.6534 68.0891L72.6144 67.9145L72.595 67.7525L72.5958 67.6048L72.6172 67.4725L72.6594 67.357L72.7222 67.2593L72.8054 67.18L72.9082 67.1198L73.0298 67.079L73.169 67.0575L73.3246 67.0554L73.4952 67.072L73.6791 67.1068L73.8745 67.1589L74.0798 67.2273L74.2932 67.3109L74.5129 67.4082L74.7371 67.5179L74.9641 67.6386L75.1924 67.7687L75.4205 67.9068L75.6471 68.0514L75.8708 68.2011L76.0907 68.3545L76.3057 68.5103L76.5152 68.6673L76.7183 68.8244L76.9147 68.9807L77.1038 69.135L77.2855 69.2868L77.4594 69.4352L77.6255 69.5797L77.7837 69.7198L77.9342 69.855L78.077 69.9849L78.2122 70.1093L78.3401 70.2279L78.461 70.3406L78.5749 70.4473L78.6823 70.5479L78.7834 70.6424L78.8784 70.7306L78.9678 70.8127L79.0518 70.8887L79.1307 70.9587L79.2047 71.0225L79.2742 71.0805L79.3395 71.1325L79.4008 71.1786L79.4583 71.219L79.5124 71.2536L79.5633 71.2825L79.6112 71.3057L79.6563 71.3233L79.6988 71.3353L79.739 71.3416L79.777 71.3423L79.8131 71.3374L79.8474 71.3267L79.8801 71.3102L79.9114 71.288L79.9414 71.2597L79.9704 71.2254L79.9985 71.185L80.0258 71.1383L80.0526 71.0851L80.079 71.0253L80.1052 70.9587L80.1314 70.8851L80.1577 70.8044L80.1844 70.7162L80.2116 70.6205L80.2395 70.5169L80.2685 70.4052L80.2985 70.2853L80.33 70.1569L80.3632 70.0198L80.3982 69.874L80.4354 69.7191L80.475 69.5551L80.5172 69.382L80.5625 69.1998L80.611 69.0084L80.6629 68.808L80.7187 68.5988L80.7786 68.3812L80.8428 68.1556L80.9115 67.9224L80.985 67.6824L81.0635 67.4363L81.1471 67.1853L81.2359 66.9302L81.3299 66.6726L81.4293 66.4137L81.5338 66.1552L81.6434 65.8989L81.7577 65.6465L81.8765 65.4003L81.9994 65.1622L82.1258 64.9344L82.2552 64.7192L82.3868 64.5187L82.5199 64.3351L82.6537 64.1704L82.7873 64.0267L82.9196 63.9057L83.0498 63.8089L83.1769 63.7376L83.2998 63.6929L83.4176 63.6753L83.5295 63.6853L83.6345 63.7227L83.732 63.7874L83.8214 63.8786L83.902 63.9952L83.9734 64.136L84.0355 64.2994L84.088 64.4836L84.131 64.6866L84.1645 64.9063L84.1887 65.1404L84.2041 65.3868L84.2109 65.6432L84.2098 65.9072L84.2012 66.1769L84.1859 66.4501L84.1643 66.7249L84.1373 66.9995L84.1055 67.2723L84.0695 67.5418L84.0301 67.8067L83.9878 68.0659L83.9434 68.3184L83.8973 68.5635L83.8502 68.8005L83.8025 69.0289L83.7547 69.2482L83.7072 69.4583L83.6605 69.659L83.6148 69.8502L83.5705 70.0318L83.5278 70.204L83.4869 70.3669L83.4482 70.5207L83.4118 70.6655L83.3778 70.8016L83.3463 70.9293L83.3176 71.0488L83.2917 71.1604L83.2687 71.2643L83.2487 71.3609L83.2318 71.4505L83.218 71.5333L83.2075 71.6095L83.2002 71.6795L83.1964 71.7434L83.196 71.8015L83.1991 71.8541L83.2058 71.9012L83.2162 71.9432L83.2305 71.9802L83.2486 72.0123L83.2708 72.0397L83.2787 72.0474Z" fill="#9070D7"/>
<path fill-rule="evenodd" clip-rule="evenodd" d="M24.3364 102.713V102.713L24.3753 102.743L24.4204 102.767L24.4717 102.785L24.5295 102.797L24.5941 102.803L24.6657 102.804L24.7447 102.799L24.8313 102.789L24.9258 102.773L25.0287 102.752L25.1402 102.726L25.2607 102.694L25.3907 102.658L25.5305 102.616L25.6804 102.57L25.8411 102.519L26.0127 102.463L26.1958 102.403L26.3906 102.338L26.5976 102.269L26.8171 102.196L27.0493 102.12L27.2945 102.04L27.5529 101.957L27.8244 101.871L28.1091 101.784L28.4068 101.694L28.7172 101.604L29.0399 101.513L29.3744 101.423L29.7197 101.334L30.075 101.247L30.4391 101.163L30.8104 101.084L31.1874 101.009L31.5681 100.94L31.9505 100.879L32.3321 100.826L32.7104 100.783L33.0826 100.75L33.4458 100.729L33.7971 100.721L34.1332 100.726L34.4511 100.746L34.7476 100.78L35.0198 100.829L35.2648 100.894L35.4801 100.975L35.6632 101.071L35.8122 101.182L35.9254 101.307L36.0017 101.446L36.0403 101.598L36.0411 101.762L36.0042 101.935L35.9302 102.118L35.8205 102.308L35.6765 102.505L35.5002 102.705L35.2938 102.909L35.0599 103.115L34.8012 103.32L34.5208 103.524L34.2214 103.726L33.9063 103.924L33.5783 104.117L33.2404 104.306L32.8955 104.488L32.5462 104.663L32.195 104.832L31.8442 104.992L31.4959 105.146L31.152 105.291L30.8141 105.429L30.4836 105.559L30.1619 105.682L29.8498 105.798L29.5483 105.906L29.2581 106.008L28.9795 106.104L28.7131 106.193L28.459 106.277L28.2173 106.356L27.9882 106.43L27.7716 106.499L27.5673 106.565L27.3753 106.627L27.1953 106.685L27.0271 106.74L26.8704 106.793L26.7249 106.844L26.5904 106.892L26.4667 106.939L26.3533 106.985L26.25 107.03L26.1567 107.073L26.0729 107.117L25.9985 107.16L25.9333 107.203L25.877 107.246L25.8295 107.29L25.7906 107.335L25.7603 107.38L25.7383 107.427L25.7246 107.476L25.7191 107.526L25.7218 107.579L25.7326 107.634L25.7516 107.691L25.7787 107.752L25.814 107.815L25.8576 107.882L25.9095 107.953L25.9698 108.028L26.0387 108.108L26.1161 108.192L26.2022 108.282L26.2972 108.377L26.4011 108.478L26.5141 108.585L26.6363 108.7L26.7677 108.821L26.9083 108.951L27.0584 109.088L27.2177 109.234L27.3862 109.388L27.564 109.552L27.7506 109.725L27.946 109.909L28.1497 110.102L28.3613 110.306L28.5802 110.52L28.8057 110.745L29.0371 110.98L29.2733 111.226L29.5133 111.481L29.7558 111.747L29.9993 112.021L30.2423 112.303L30.483 112.593L30.7196 112.889L30.9501 113.19L31.1723 113.495L31.3841 113.801L31.5833 114.107L31.7675 114.41L31.9345 114.71L32.0821 115.002L32.2083 115.286L32.3112 115.559L32.389 115.817L32.4402 116.06L32.4638 116.284L32.4588 116.489L32.4246 116.67L32.3612 116.829L32.2688 116.962L32.1478 117.068L31.9994 117.148L31.8247 117.2L31.6253 117.225L31.4032 117.224L31.1604 117.195L30.8991 117.142L30.6219 117.064L30.3311 116.963L30.0294 116.842L29.7192 116.701L29.4029 116.544L29.0829 116.371L28.7615 116.185L28.4406 115.989L28.1222 115.783L27.808 115.571L27.4994 115.354L27.1978 115.134L26.9041 114.912L26.6195 114.691L26.3445 114.471L26.0797 114.254L25.8256 114.041L25.5823 113.832L25.3501 113.63L25.1289 113.433L24.9186 113.244L24.7191 113.062L24.5302 112.888L24.3516 112.722L24.1829 112.565L24.0238 112.416L23.874 112.275L23.7329 112.144L23.6002 112.021L23.4756 111.906L23.3584 111.801L23.2484 111.703L23.1451 111.615L23.0482 111.534L22.9572 111.462L22.8717 111.399L22.7915 111.343L22.7161 111.295L22.6452 111.256L22.5785 111.224L22.5156 111.201L22.4563 111.185L22.4004 111.177L22.3474 111.177L22.2972 111.185L22.2494 111.201L22.2039 111.226L22.1603 111.258L22.1185 111.299L22.0782 111.348L22.0391 111.406L22.001 111.473L21.9637 111.549L21.927 111.635L21.8905 111.73L21.8541 111.834L21.8174 111.949L21.7802 112.075L21.7423 112.211L21.7033 112.358L21.663 112.516L21.6209 112.687L21.5769 112.869L21.5306 113.063L21.4816 113.27L21.4296 113.489L21.3741 113.721L21.3149 113.966L21.2515 114.224L21.1835 114.494L21.1105 114.777L21.0322 115.073L20.9482 115.38L20.8581 115.698L20.7615 116.027L20.6583 116.365L20.548 116.711L20.4305 117.064L20.3058 117.423L20.1736 117.785L20.034 118.148L19.8872 118.51L19.7333 118.869L19.5728 119.221L19.4061 119.565L19.2337 119.897L19.0564 120.213L18.875 120.512L18.6906 120.789L18.5041 121.042L18.3169 121.268L18.1301 121.465L17.945 121.629L17.7632 121.759L17.5858 121.852L17.4144 121.908L17.2501 121.926L17.0944 121.906L16.9482 121.847L16.8127 121.749L16.6887 121.615L16.5769 121.445L16.4779 121.242L16.3921 121.008L16.3196 120.744L16.2604 120.455L16.2145 120.143L16.1813 119.811L16.1606 119.463L16.1516 119.101L16.1537 118.729L16.1661 118.349L16.1879 117.965L16.2182 117.579L16.2561 117.194L16.3006 116.812L16.3507 116.434L16.4056 116.064L16.4643 115.701L16.526 115.348L16.5899 115.006L16.6553 114.676L16.7213 114.357L16.7874 114.051L16.853 113.759L16.9176 113.479L16.9807 113.213L17.0418 112.96L17.1006 112.721L17.1568 112.494L17.21 112.281L17.26 112.079L17.3066 111.89L17.3496 111.713L17.3888 111.547L17.4241 111.392L17.4553 111.248L17.4822 111.114L17.5049 110.99L17.5232 110.875L17.5369 110.77L17.546 110.673L17.5504 110.584L17.5499 110.504L17.5445 110.432L17.534 110.366L17.5183 110.309L17.4973 110.258L17.4708 110.214L17.4386 110.176L17.4006 110.145L17.3566 110.12L17.3063 110.101L17.2495 110.088L17.186 110.081L17.1155 110.079L17.0377 110.083L16.9524 110.093L16.8591 110.107L16.7576 110.128L16.6475 110.153L16.5284 110.184L16.4 110.219L16.2618 110.26L16.1135 110.305L15.9546 110.356L15.7847 110.411L15.6035 110.47L15.4106 110.534L15.2055 110.603L14.988 110.675L14.7579 110.751L14.5147 110.83L14.2585 110.913L13.9891 110.998L13.7065 111.085L13.4108 111.175L13.1024 111.265L12.7816 111.355L12.449 111.446L12.1053 111.535L11.7515 111.622L11.3888 111.707L11.0185 111.787L10.6423 111.863L10.262 111.933L9.87977 111.995L9.49788 112.049L9.11888 112.094L8.7455 112.129L8.38062 112.151L8.02726 112.162L7.68852 112.159L7.36753 112.142L7.06739 112.11L6.79111 112.063L6.54158 112L6.32143 111.922L6.13307 111.829L5.97855 111.72L5.85953 111.597L5.77729 111.46L5.73261 111.31L5.72582 111.149L5.75679 110.976L5.82488 110.795L5.92901 110.606L6.06768 110.41L6.23901 110.21L6.44078 110.007L6.67046 109.801L6.92535 109.596L7.20256 109.392L7.49909 109.189L7.81193 108.991L8.13806 108.796L8.47454 108.607L8.81851 108.424L9.1673 108.248L9.51836 108.078L9.86936 107.916L10.2182 107.761L10.5629 107.615L10.9019 107.476L11.2336 107.344L11.5568 107.22L11.8705 107.103L12.1737 106.994L12.4658 106.891L12.7463 106.794L13.0146 106.704L13.2707 106.619L13.5143 106.539L13.7455 106.465L13.9641 106.395L14.1703 106.329L14.3642 106.266L14.5462 106.207L14.7162 106.152L14.8748 106.098L15.022 106.047L15.1582 105.998L15.2837 105.951L15.3987 105.905L15.5035 105.861L15.5985 105.817L15.6837 105.774L15.7596 105.73L15.8263 105.687L15.884 105.644L15.9328 105.6L15.9731 105.556L16.0048 105.51L16.0281 105.463L16.0431 105.415L16.0499 105.365L16.0485 105.313L16.039 105.258L16.0213 105.201L15.9955 105.142L15.9615 105.079L15.9192 105.012L15.8686 104.942L15.8097 104.867L15.7422 104.789L15.6662 104.705L15.5814 104.616L15.4878 104.522L15.3853 104.422L15.2738 104.315L15.1531 104.202L15.0232 104.082L14.884 103.954L14.7355 103.818L14.5777 103.673L14.4105 103.52L14.2343 103.358L14.049 103.186L13.855 103.004L13.6526 102.813L13.4423 102.611L13.2245 102.398L12.9999 102.175L12.7694 101.941L12.5339 101.697L12.2944 101.443L12.0523 101.18L11.8088 100.907L11.5657 100.625L11.3244 100.337L11.087 100.041L10.8555 99.7411L10.6318 99.4372L10.4181 99.1313L10.2168 98.8253L10.0301 98.5211L9.86023 98.2209L9.70936 97.9269L9.5796 97.6416L9.4729 97.3672L9.391 97.1061L9.33542 96.8607L9.30739 96.6332L9.30782 96.4258L9.33731 96.2402L9.39605 96.0782L9.48392 95.9412L9.60037 95.8303L9.74452 95.7462L9.91514 95.6894L10.1107 95.66L10.3293 95.6576L10.569 95.6818L10.8275 95.7315L11.1023 95.8055L11.3911 95.9025L11.6912 96.0208L12.0003 96.1584L12.3157 96.3135L12.6353 96.484L12.9566 96.6677L13.2777 96.8627L13.5966 97.0668L13.9116 97.278L14.2212 97.4944L14.524 97.7141L14.819 97.9356L15.1051 98.1571L15.3817 98.3774L15.6481 98.595L15.904 98.8089L16.149 99.0182L16.383 99.2218L16.606 99.4192L16.818 99.6097L17.0191 99.7928L17.2097 99.968L17.39 100.135L17.5602 100.294L17.7208 100.444L17.8721 100.586L18.0145 100.719L18.1485 100.844L18.2744 100.959L18.3928 101.066L18.5039 101.165L18.6082 101.255L18.7061 101.337L18.7981 101.41L18.8844 101.475L18.9654 101.532L19.0416 101.581L19.1132 101.622L19.1805 101.654L19.244 101.679L19.3038 101.696L19.3603 101.705L19.4137 101.707L19.4643 101.7L19.5125 101.685L19.5583 101.662L19.6022 101.631L19.6443 101.591L19.6848 101.543L19.7241 101.487L19.7623 101.421L19.7997 101.347L19.8365 101.263L19.873 101.169L19.9095 101.066L19.9461 100.953L19.9831 100.829L20.0209 100.695L20.0597 100.55L20.0998 100.393L20.1416 100.225L20.1852 100.045L20.2312 99.8522L20.2797 99.6475L20.3312 99.4302L20.3861 99.2002L20.4447 98.9573L20.5075 98.7015L20.5747 98.433L20.6468 98.1519L20.7243 97.8585L20.8073 97.5532L20.8965 97.2366L20.992 96.9095L21.0942 96.5728L21.2033 96.2276L21.3196 95.8755L21.4432 95.5178L21.5742 95.1564L21.7126 94.7933L21.8583 94.4308L22.011 94.0713L22.1705 93.7176L22.3363 93.3723L22.5079 93.0385L22.6844 92.7193L22.8652 92.4176L23.0492 92.1366L23.2354 91.8794L23.4226 91.6489L23.6096 91.4477L23.795 91.2783L23.9775 91.143L24.1556 91.0435L24.3281 90.9812L24.4936 90.9571L24.6508 90.9716L24.7985 91.0247L24.9358 91.1159L25.0617 91.2444L25.1755 91.4085L25.2765 91.6065L25.3645 91.8362L25.4391 92.0951L25.5004 92.3803L25.5484 92.689L25.5836 93.0179L25.6062 93.3639L25.617 93.7239L25.6166 94.0947L25.6058 94.4734L25.5855 94.8569L25.5564 95.2427L25.5197 95.6282L25.4762 96.011L25.4269 96.3893L25.3728 96.7611L25.3146 97.1249L25.2533 97.4793L25.1897 97.8233L25.1245 98.1558L25.0586 98.4763L24.9924 98.7841L24.9267 99.0789L24.8619 99.3605L24.7986 99.6287L24.7371 99.8836L24.6779 100.125L24.6213 100.354L24.5676 100.569L24.5171 100.773L24.4699 100.964L24.4263 101.143L24.3865 101.31L24.3506 101.467L24.3188 101.613L24.2911 101.748L24.2677 101.874L24.2488 101.99L24.2343 102.097L24.2245 102.195L24.2193 102.285L24.219 102.367L24.2236 102.441L24.2333 102.507L24.2481 102.566L24.2683 102.618L24.2939 102.663L24.3252 102.702L24.3364 102.713Z" fill="#9070D7"/>
<path fill-rule="evenodd" clip-rule="evenodd" d="M62.8689 22.8076V22.8076L62.9206 22.8474L62.9804 22.8788L63.0488 22.9021L63.126 22.9173L63.2123 22.9247L63.3082 22.9244L63.414 22.9165L63.5301 22.9012L63.6569 22.8785L63.7949 22.8486L63.9446 22.8115L64.1065 22.7673L64.2811 22.7162L64.4689 22.6582L64.6705 22.5935L64.8863 22.5222L65.117 22.4444L65.3631 22.3603L65.625 22.2701L65.9033 22.1742L66.1983 22.0727L66.5105 21.966L66.8401 21.8546L67.1873 21.7389L67.5522 21.6194L67.9348 21.4969L68.3348 21.372L68.7519 21.2455L69.1854 21.1183L69.6347 20.9916L70.0985 20.8662L70.5756 20.7435L71.0643 20.6247L71.5627 20.5112L72.0686 20.4045L72.5794 20.306L73.0922 20.2173L73.6039 20.1399L74.111 20.0753L74.6098 20.0252L75.0964 19.9908L75.5667 19.9736L76.0165 19.9748L76.4416 19.9954L76.838 20.0362L77.2015 20.098L77.5283 20.1809L77.815 20.2852L78.0585 20.4107L78.256 20.557L78.4054 20.7232L78.5051 20.9084L78.5542 21.1113L78.5524 21.3304L78.5 21.5641L78.3979 21.8105L78.2477 22.0676L78.0516 22.3334L77.8121 22.6057L77.5323 22.8826L77.2157 23.162L76.866 23.4419L76.487 23.7206L76.0829 23.9963L75.6576 24.2674L75.2153 24.5327L74.7598 24.7909L74.295 25.0411L73.8244 25.2824L73.3514 25.5142L72.8791 25.736L72.4103 25.9476L71.9474 26.1488L71.4927 26.3395L71.0482 26.5199L70.6154 26.6901L70.1957 26.8505L69.7903 27.0013L69.4 27.1429L69.0255 27.2759L68.6673 27.4006L68.3257 27.5176L68.0009 27.6274L67.693 27.7305L67.4018 27.8274L67.1273 27.9186L66.8692 28.0047L66.6272 28.0862L66.4011 28.1634L66.1904 28.237L65.9949 28.3073L65.8141 28.3748L65.6476 28.4399L65.495 28.503L65.356 28.5646L65.2303 28.6249L65.1174 28.6844L65.0171 28.7434L64.9291 28.8023L64.853 28.8615L64.7887 28.9212L64.7359 28.9818L64.6944 29.0437L64.6642 29.1071L64.645 29.1726L64.6368 29.2402L64.6395 29.3106L64.653 29.3839L64.6774 29.4606L64.7127 29.541L64.7589 29.6256L64.8161 29.7148L64.8843 29.809L64.9638 29.9086L65.0545 30.014L65.1567 30.1259L65.2705 30.2446L65.396 30.3706L65.5333 30.5045L65.6827 30.6469L65.8443 30.7982L66.018 30.959L66.2041 31.1299L66.4025 31.3114L66.6133 31.5041L66.8363 31.7085L67.0713 31.9252L67.3182 32.1545L67.5765 32.3969L67.8458 32.6527L68.1255 32.9224L68.4149 33.2059L68.7129 33.5035L69.0185 33.8151L69.3305 34.1404L69.6473 34.4792L69.9673 34.8307L70.2885 35.1944L70.6089 35.5691L70.9261 35.9537L71.2377 36.3468L71.541 36.7464L71.8333 37.1508L72.1115 37.5576L72.3728 37.9645L72.6141 38.3686L72.8325 38.7672L73.0251 39.1573L73.1891 39.5357L73.3221 39.8993L73.4218 40.245L73.4862 40.5696L73.5139 40.8702L73.5036 41.144L73.4548 41.3886L73.3672 41.6017L73.2412 41.7816L73.0774 41.9268L72.8774 42.0363L72.6426 42.1096L72.3753 42.1467L72.078 42.148L71.7535 42.1142L71.4047 42.0467L71.035 41.9471L70.6476 41.8174L70.2458 41.6597L69.8329 41.4765L69.4123 41.2705L68.987 41.0443L68.56 40.8008L68.1339 40.5427L67.7112 40.2728L67.2943 39.9937L66.8849 39.7079L66.485 39.4178L66.0958 39.1257L65.7186 38.8337L65.3543 38.5435L65.0036 38.2568L64.6671 37.9752L64.3451 37.6999L64.0377 37.432L63.745 37.1725L63.4668 36.9222L63.2029 36.6818L62.9531 36.4516L62.7168 36.2322L62.4938 36.0239L62.2834 35.8269L62.0852 35.6412L61.8987 35.467L61.7232 35.3044L61.5583 35.1532L61.4033 35.0134L61.2577 34.8849L61.121 34.7678L60.9926 34.6617L60.8721 34.5667L60.7588 34.4827L60.6523 34.4094L60.5522 34.3469L60.458 34.2951L60.3692 34.2539L60.2855 34.2232L60.2065 34.2031L60.1317 34.1936L60.0608 34.1947L59.9934 34.2064L59.9292 34.2288L59.8678 34.2621L59.809 34.3065L59.7523 34.362L59.6975 34.4289L59.6441 34.5074L59.592 34.5978L59.5408 34.7004L59.4901 34.8155L59.4397 34.9435L59.3891 35.0846L59.3381 35.2394L59.2862 35.4081L59.233 35.5913L59.1783 35.7893L59.1216 36.0025L59.0624 36.2314L59.0004 36.4764L58.935 36.7377L58.8659 37.0158L58.7924 37.3108L58.7142 37.623L58.6307 37.9526L58.5414 38.2994L58.4457 38.6634L58.3432 39.0444L58.2333 39.4419L58.1155 39.8553L57.9894 40.2837L57.8545 40.7263L57.7104 41.1815L57.5569 41.6479L57.3936 42.1236L57.2204 42.6065L57.0372 43.094L56.8442 43.5835L56.6414 44.0717L56.4293 44.5555L56.2083 45.0312L55.9792 45.4949L55.7427 45.9428L55.5 46.3706L55.2521 46.7741L55.0004 47.1493L54.7465 47.492L54.4919 47.7985L54.2385 48.0649L53.988 48.2882L53.7423 48.4653L53.5034 48.594L53.2729 48.6724L53.0527 48.6994L52.8446 48.6743L52.65 48.5974L52.4702 48.4693L52.3066 48.2914L52.1599 48.0658L52.0309 47.7949L51.92 47.4819L51.8275 47.13L51.7533 46.7432L51.6972 46.3255L51.6586 45.881L51.6368 45.4139L51.6311 44.9287L51.6403 44.4294L51.6634 43.92L51.6992 43.4045L51.7464 42.8865L51.8038 42.3692L51.8699 41.8557L51.9435 41.3487L52.0233 40.8507L52.1082 40.3637L52.1969 39.8894L52.2883 39.4293L52.3814 38.9847L52.4753 38.5564L52.5691 38.1452L52.662 37.7515L52.7532 37.3756L52.8422 37.0177L52.9284 36.6776L53.0112 36.3553L53.0903 36.0506L53.1652 35.763L53.2356 35.4923L53.3013 35.2379L53.3619 34.9994L53.4172 34.7763L53.4671 34.568L53.5113 34.3741L53.5497 34.1939L53.5822 34.027L53.6086 33.8729L53.6288 33.7311L53.6427 33.601L53.65 33.4824L53.6508 33.3746L53.6448 33.2773L53.6319 33.1902L53.6119 33.1129L53.5846 33.0451L53.5499 32.9864L53.5075 32.9366L53.4572 32.8954L53.3986 32.8627L53.3316 32.8382L53.2559 32.8217L53.171 32.813L53.0767 32.8121L52.9725 32.8188L52.8581 32.833L52.733 32.8545L52.5968 32.8833L52.449 32.9192L52.289 32.9623L52.1165 33.0123L51.9309 33.0692L51.7315 33.1328L51.518 33.2031L51.2897 33.2799L51.0461 33.363L50.7867 33.4522L50.5111 33.5472L50.2187 33.6479L49.9093 33.7538L49.5825 33.8645L49.2381 33.9795L48.876 34.0984L48.4963 34.2205L48.099 34.3451L47.6846 34.4714L47.2536 34.5985L46.8068 34.7254L46.3453 34.8511L45.8702 34.9743L45.3832 35.0938L44.8862 35.2082L44.3813 35.3161L43.8711 35.416L43.3584 35.5064L42.8463 35.5857L42.3382 35.6524L41.8379 35.7049L41.3491 35.7419L40.8759 35.7619L40.4225 35.7637L39.9932 35.7463L39.592 35.7087L39.223 35.6504L38.8901 35.5708L38.5967 35.4699L38.3462 35.3477L38.1413 35.2048L37.9841 35.0417L37.8763 34.8594L37.8191 34.6592L37.8128 34.4426L37.8572 34.2111L37.9515 33.9666L38.0942 33.7111L38.2831 33.4465L38.5159 33.1751L38.7895 32.8988L39.1005 32.6197L39.4452 32.3397L39.8198 32.0607L40.2202 31.7845L40.6423 31.5125L41.0822 31.2462L41.5358 30.9868L41.9994 30.7353L42.4693 30.4925L42.9421 30.2592L43.4148 30.0357L43.8843 29.8225L44.3483 29.6196L44.8044 29.4273L45.2507 29.2452L45.6855 29.0734L46.1073 28.9115L46.5151 28.7592L46.9078 28.6161L47.2849 28.4818L47.6457 28.3558L47.9899 28.2376L48.3174 28.1267L48.628 28.0226L48.9219 27.9248L49.199 27.8326L49.4597 27.7458L49.7042 27.6636L49.9329 27.5857L50.146 27.5116L50.3439 27.4408L50.5271 27.3729L50.6958 27.3074L50.8506 27.244L50.9917 27.1822L51.1195 27.1217L51.2344 27.0621L51.3367 27.003L51.4267 26.9441L51.5046 26.8851L51.5708 26.8255L51.6254 26.765L51.6686 26.7034L51.7007 26.6402L51.7216 26.5751L51.7316 26.5078L51.7306 26.4379L51.7188 26.3651L51.6961 26.289L51.6626 26.2091L51.6181 26.1252L51.5627 26.0368L51.4962 25.9434L51.4186 25.8448L51.3296 25.7403L51.2293 25.6295L51.1174 25.5119L50.9938 25.3871L50.8583 25.2544L50.7108 25.1135L50.5512 24.9636L50.3794 24.8044L50.1953 24.6351L49.9988 24.4553L49.79 24.2644L49.569 24.0619L49.3359 23.8473L49.0909 23.62L48.8343 23.3797L48.5667 23.126L48.2886 22.8586L48.0008 22.5772L47.7041 22.2819L47.3995 21.9725L47.0885 21.6494L46.7723 21.3128L46.4527 20.9632L46.1316 20.6014L45.8109 20.2283L45.493 19.8452L45.1804 19.4534L44.8755 19.0547L44.5813 18.6509L44.3007 18.2443L44.0365 17.8373L43.7918 17.4325L43.5696 17.0328L43.3727 16.6412L43.2039 16.2607L43.0658 15.8945L42.9607 15.5458L42.8906 15.2176L42.8569 14.913L42.8611 14.6348L42.9038 14.3854L42.9852 14.1671L43.1052 13.9818L43.2629 13.8311L43.4573 13.7158L43.6867 13.6367L43.949 13.5939L44.2417 13.5869L44.5621 13.6152L44.9072 13.6774L45.2738 13.772L45.6586 13.8971L46.0584 14.0505L46.4697 14.2298L46.8892 14.4324L47.314 14.6555L47.741 14.8964L48.1674 15.1524L48.5907 15.4206L49.0087 15.6985L49.4194 15.9834L49.821 16.2729L50.212 16.5648L50.5911 16.857L50.9576 17.1476L51.3104 17.4349L51.6492 17.7174L51.9735 17.9938L52.2832 18.2629L52.5783 18.5238L52.8588 18.7756L53.1249 19.0177L53.377 19.2495L53.6154 19.4706L53.8405 19.6807L54.0528 19.8796L54.2529 20.0671L54.4413 20.2431L54.6185 20.4076L54.7851 20.5606L54.9416 20.7022L55.0886 20.8324L55.2267 20.9514L55.3564 21.0592L55.4782 21.1559L55.5926 21.2418L55.7001 21.3167L55.8012 21.3809L55.8963 21.4344L55.9859 21.4773L56.0704 21.5097L56.1502 21.5314L56.2256 21.5427L56.2971 21.5433L56.365 21.5333L56.4297 21.5126L56.4915 21.481L56.5507 21.4384L56.6078 21.3847L56.6629 21.3196L56.7164 21.243L56.7687 21.1545L56.82 21.0538L56.8707 20.9408L56.9212 20.8149L56.9717 20.6758L57.0227 20.5233L57.0745 20.3568L57.1273 20.1759L57.1818 19.9803L57.2382 19.7695L57.2969 19.5432L57.3585 19.3008L57.4233 19.0421L57.4918 18.7667L57.5645 18.4744L57.6419 18.1649L57.7246 17.8382L57.8129 17.4941L57.9076 17.1328L58.0089 16.7545L58.1176 16.3596L58.2341 15.9487L58.3589 15.5226L58.4924 15.0822L58.6349 14.6289L58.787 14.1641L58.9487 13.6897L59.1203 13.2079L59.3019 12.7209L59.4934 12.2316L59.6946 11.7429L59.9053 11.2582L60.1249 10.7809L60.3527 10.315L60.5881 9.8644L60.8299 9.43315L61.0771 9.02545L61.3283 8.64547L61.5819 8.29729L61.8365 7.98483L62.0902 7.71178L62.3413 7.48146L62.5879 7.29682L62.8281 7.16028L63.06 7.07375L63.2819 7.03853L63.4921 7.05527L63.6889 7.12398L63.8711 7.24401L64.0374 7.41407L64.1869 7.63225L64.3187 7.89611L64.4325 8.20268L64.5279 8.54857L64.605 8.93007L64.664 9.34317L64.7054 9.78371L64.7298 10.2474L64.738 10.7301L64.7311 11.2274L64.7101 11.7354L64.6762 12.2502L64.6307 12.7681L64.5749 13.2857L64.5101 13.8L64.4376 14.3081L64.3587 14.8077L64.2746 15.2967L64.1864 15.7731L64.0954 16.2355L64.0024 16.6826L63.9086 17.1136L63.8148 17.5275L63.7217 17.9241L63.6301 18.3028L63.5407 18.6636L63.4541 19.0065L63.3707 19.3316L63.291 19.6391L63.2154 19.9294L63.1442 20.2028L63.0778 20.4597L63.0164 20.7007L62.9602 20.9263L62.9094 21.1369L62.8643 21.3331L62.8249 21.5154L62.7915 21.6843L62.7641 21.8404L62.7429 21.9842L62.7281 22.1161L62.7196 22.2366L62.7178 22.346L62.7227 22.4449L62.7345 22.5336L62.7534 22.6125L62.7795 22.6818L62.813 22.742L62.8542 22.7932L62.8689 22.8076Z" fill="#9070D7"/>
</svg>
